<svg width="94" height="33" viewBox="0 0 94 33" fill="none" xmlns="http://www.w3.org/2000/svg">
<path d="M34.304 22V12.7273H35.6804V14.1278H35.777C35.946 13.669 36.2519 13.2968 36.6946 13.011C37.1373 12.7253 37.6364 12.5824 38.1918 12.5824C38.2964 12.5824 38.4272 12.5844 38.5842 12.5884C38.7411 12.5924 38.8598 12.5985 38.9403 12.6065V14.0554C38.892 14.0433 38.7814 14.0252 38.6083 14.0011C38.4393 13.9729 38.2602 13.9588 38.071 13.9588C37.6203 13.9588 37.2178 14.0534 36.8636 14.2425C36.5135 14.4277 36.2358 14.6853 36.0305 15.0153C35.8293 15.3413 35.7287 15.7135 35.7287 16.1321V22H34.304ZM40.6292 22V12.7273H42.0056V14.1761H42.1263C42.3195 13.6811 42.6314 13.2968 43.0621 13.0231C43.4927 12.7454 44.0099 12.6065 44.6135 12.6065C45.2253 12.6065 45.7344 12.7454 46.1409 13.0231C46.5514 13.2968 46.8714 13.6811 47.1008 14.1761H47.1974C47.4348 13.6972 47.791 13.3169 48.2659 13.0352C48.7408 12.7494 49.3103 12.6065 49.9743 12.6065C50.8034 12.6065 51.4816 12.8661 52.0088 13.3853C52.536 13.9004 52.7996 14.7034 52.7996 15.794V22H51.3749V15.794C51.3749 15.1098 51.1878 14.6209 50.8135 14.3271C50.4392 14.0333 49.9985 13.8864 49.4914 13.8864C48.8394 13.8864 48.3343 14.0836 47.9761 14.478C47.6179 14.8684 47.4388 15.3634 47.4388 15.9631V22H45.99V15.6491C45.99 15.1219 45.8189 14.6973 45.4768 14.3754C45.1347 14.0494 44.694 13.8864 44.1547 13.8864C43.7845 13.8864 43.4384 13.985 43.1164 14.1822C42.7984 14.3794 42.5409 14.6531 42.3437 15.0032C42.1505 15.3493 42.0539 15.7498 42.0539 16.2045V22H40.6292ZM59.4372 12.7273V13.9347H54.6318V12.7273H59.4372ZM56.0324 10.5057H57.4571V19.3438C57.4571 19.7462 57.5155 20.0481 57.6322 20.2493C57.7529 20.4465 57.9059 20.5793 58.091 20.6477C58.2802 20.7121 58.4794 20.7443 58.6887 20.7443C58.8456 20.7443 58.9744 20.7363 59.075 20.7202C59.1756 20.7 59.2561 20.6839 59.3165 20.6719L59.6063 21.9517C59.5097 21.9879 59.3749 22.0241 59.2018 22.0604C59.0287 22.1006 58.8094 22.1207 58.5438 22.1207C58.1413 22.1207 57.7469 22.0342 57.3605 21.8612C56.9782 21.6881 56.6602 21.4245 56.4067 21.0703C56.1572 20.7161 56.0324 20.2694 56.0324 19.7301V10.5057ZM65.0757 22H60.4394L62.4919 9.63636H66.9894C68.2451 9.63636 69.2915 9.89193 70.1286 10.4031C70.9698 10.9102 71.5634 11.6386 71.9095 12.5884C72.2597 13.5342 72.3261 14.6611 72.1088 15.9691C71.8995 17.2328 71.4789 18.3155 70.847 19.217C70.2192 20.1185 69.4143 20.8087 68.4323 21.2876C67.4503 21.7625 66.3314 22 65.0757 22ZM63.8442 19.4524H65.2629C65.9551 19.4524 66.5669 19.3277 67.0981 19.0781C67.6334 18.8246 68.0761 18.4201 68.4262 17.8647C68.7764 17.3053 69.0259 16.5708 69.1748 15.6612C69.3197 14.7919 69.3137 14.1057 69.1567 13.6026C69.0038 13.0955 68.7059 12.7333 68.2632 12.516C67.8245 12.2946 67.251 12.1839 66.5427 12.1839H65.0576L63.8442 19.4524ZM77.1677 22.1751C76.1978 22.1751 75.3928 21.9839 74.7529 21.6016C74.117 21.2152 73.6703 20.6658 73.4127 19.9535C73.1552 19.2371 73.1089 18.3859 73.2739 17.3999C73.4349 16.442 73.7629 15.6049 74.2579 14.8885C74.757 14.1681 75.3848 13.6087 76.1414 13.2102C76.8981 12.8078 77.7412 12.6065 78.6709 12.6065C79.3309 12.6065 79.9165 12.7092 80.4276 12.9144C80.9388 13.1197 81.3614 13.4255 81.6954 13.832C82.0294 14.2345 82.2568 14.7295 82.3776 15.3171C82.4983 15.9047 82.4943 16.5788 82.3655 17.3395L82.2508 18.076H74.1975L74.4692 16.3615H79.7817C79.83 16.0476 79.8038 15.7679 79.7032 15.5224C79.6026 15.2769 79.4396 15.0857 79.2142 14.9489C78.9929 14.808 78.7212 14.7376 78.3992 14.7376C78.0732 14.7376 77.7674 14.814 77.4816 14.967C77.1999 15.1159 76.9604 15.3171 76.7632 15.5707C76.566 15.8242 76.4372 16.11 76.3769 16.4279L76.0569 18.1847C75.9925 18.575 76.0106 18.9091 76.1112 19.1868C76.2119 19.4645 76.3849 19.6778 76.6304 19.8267C76.8759 19.9716 77.1919 20.044 77.5782 20.044C77.8358 20.044 78.0773 20.0098 78.3026 19.9414C78.528 19.869 78.7293 19.7623 78.9063 19.6214C79.0874 19.4766 79.2343 19.3015 79.347 19.0962L82.0395 19.1747C81.8222 19.7824 81.4861 20.3117 81.0313 20.7624C80.5766 21.2092 80.0212 21.5573 79.3651 21.8068C78.7132 22.0523 77.9807 22.1751 77.1677 22.1751ZM93.392 12.7273L88.665 22H85.2844L83.6544 12.7273H86.6547L87.3067 19.1143H87.4033L90.1743 12.7273H93.392Z" fill="white"/>
<path d="M8.78268 10.9092C8.76162 9.77573 9.68598 8.85137 10.8195 8.87243L19.4725 9.03317C21.2362 9.06593 22.0969 11.1997 20.8496 12.447L12.3573 20.9393C11.11 22.1866 8.97618 21.3259 8.94342 19.5623L8.78268 10.9092Z" fill="white" fill-opacity="0.8"/>
<path d="M25.2518 22.0699C25.1443 22.9908 24.4181 23.717 23.4972 23.8245L17.2204 24.5573C15.337 24.7772 14.2335 22.4974 15.5742 21.1566L22.5839 14.147C23.9247 12.8062 26.2045 13.9098 25.9846 15.7931L25.2518 22.0699Z" fill="white"/>
</svg>
